<svg id="Layer_1" data-name="Layer 1" xmlns="http://www.w3.org/2000/svg" xmlns:xlink="http://www.w3.org/1999/xlink" width="559.06" height="597.15" viewBox="0 0 559.06 597.15">
  <defs>
    <linearGradient id="linear-gradient" x1="378.27" y1="156.58" x2="394.09" y2="557.73" gradientTransform="matrix(1, 0, 0, -1, -109.43, 600.16)" gradientUnits="userSpaceOnUse">
      <stop offset="0" stop-color="#fff" stop-opacity="0"/>
      <stop offset="1" stop-color="#fff"/>
    </linearGradient>
    <linearGradient id="linear-gradient-2" x1="258.69" y1="372.48" x2="517.54" y2="372.48" gradientTransform="matrix(1, 0, 0, -1, -109.43, 600.16)" gradientUnits="userSpaceOnUse">
      <stop offset="0" stop-color="#183866"/>
      <stop offset="1" stop-color="#1a7fc1"/>
    </linearGradient>
    <linearGradient id="linear-gradient-3" x1="395.6" y1="474.93" x2="395.6" y2="67.66" gradientTransform="matrix(1, 0, 0, -1, -109.43, 600.16)" gradientUnits="userSpaceOnUse">
      <stop offset="0" stop-opacity="0"/>
      <stop offset="0.97"/>
    </linearGradient>
    <linearGradient id="linear-gradient-4" x1="273.77" y1="391.93" x2="304.85" y2="391.93" xlink:href="#linear-gradient-2"/>
    <linearGradient id="linear-gradient-5" x1="280.41" y1="173.51" x2="286.47" y2="173.51" xlink:href="#linear-gradient-3"/>
    <linearGradient id="linear-gradient-6" x1="323.32" y1="173.51" x2="329.38" y2="173.51" xlink:href="#linear-gradient-3"/>
    <linearGradient id="linear-gradient-7" x1="174.01" y1="299.19" x2="216.92" y2="299.19" gradientTransform="matrix(1, 0, 0, -1, 0, 600)" xlink:href="#linear-gradient-3"/>
    <linearGradient id="linear-gradient-8" x1="174.01" y1="254.82" x2="216.92" y2="254.82" gradientTransform="matrix(1, 0, 0, -1, 0, 600)" xlink:href="#linear-gradient-3"/>
    <linearGradient id="linear-gradient-9" x1="174.01" y1="210.47" x2="216.92" y2="210.47" gradientTransform="matrix(1, 0, 0, -1, 0, 600)" xlink:href="#linear-gradient-3"/>
    <linearGradient id="linear-gradient-10" x1="174.01" y1="166.09" x2="216.92" y2="166.09" gradientTransform="matrix(1, 0, 0, -1, 0, 600)" xlink:href="#linear-gradient-3"/>
    <linearGradient id="linear-gradient-11" x1="174.01" y1="121.74" x2="216.92" y2="121.74" gradientTransform="matrix(1, 0, 0, -1, 0, 600)" xlink:href="#linear-gradient-3"/>
    <linearGradient id="linear-gradient-12" x1="174.01" y1="77.37" x2="216.92" y2="77.37" gradientTransform="matrix(1, 0, 0, -1, 0, 600)" xlink:href="#linear-gradient-3"/>
    <linearGradient id="linear-gradient-13" x1="383.2" y1="590.58" x2="420.43" y2="501.23" gradientTransform="matrix(1, 0, 0, -1, -109.43, 600.16)" gradientUnits="userSpaceOnUse">
      <stop offset="0" stop-color="#fff" stop-opacity="0"/>
      <stop offset="1" stop-color="#fff"/>
    </linearGradient>
    <linearGradient id="linear-gradient-14" x1="136.4" y1="598.94" x2="135.96" y2="583.34" gradientTransform="matrix(1, 0, 0, -1, -109.43, 600.16)" gradientUnits="userSpaceOnUse">
      <stop offset="0" stop-color="#97eafd"/>
      <stop offset="0" stop-color="#a8eefd"/>
      <stop offset="1" stop-color="#e7faff"/>
    </linearGradient>
    <linearGradient id="linear-gradient-15" x1="155.03" y1="598.41" x2="154.59" y2="582.81" xlink:href="#linear-gradient-14"/>
    <linearGradient id="linear-gradient-16" x1="64.22" y1="597.72" x2="63.78" y2="582.12" gradientTransform="matrix(1, 0, 0, -1, 0, 600)" xlink:href="#linear-gradient-14"/>
    <linearGradient id="linear-gradient-17" x1="263.45" y1="529.87" x2="208.2" y2="520.96" gradientTransform="matrix(1, 0, 0, -1, -109.43, 600.16)" gradientUnits="userSpaceOnUse">
      <stop offset="0" stop-color="#68e1fd"/>
      <stop offset="0.08" stop-color="#84e6fd"/>
      <stop offset="0.21" stop-color="#a9eefe"/>
      <stop offset="0.35" stop-color="#c8f4fe"/>
      <stop offset="0.49" stop-color="#e0f9ff"/>
      <stop offset="0.64" stop-color="#f2fcff"/>
      <stop offset="0.8" stop-color="#fcfeff"/>
      <stop offset="1" stop-color="#fff"/>
    </linearGradient>
    <linearGradient id="linear-gradient-18" x1="271.21" y1="481.8" x2="215.95" y2="472.89" xlink:href="#linear-gradient-17"/>
    <linearGradient id="linear-gradient-19" x1="278.96" y1="433.72" x2="223.71" y2="424.81" xlink:href="#linear-gradient-17"/>
    <linearGradient id="linear-gradient-20" x1="286.72" y1="385.65" x2="231.46" y2="376.74" xlink:href="#linear-gradient-17"/>
    <linearGradient id="linear-gradient-21" x1="237.66" y1="363.84" x2="284.34" y2="363.84" gradientTransform="matrix(1, 0, 0, -1, -109.43, 600.16)" gradientUnits="userSpaceOnUse">
      <stop offset="0" stop-color="#ecc4d7"/>
      <stop offset="0.42" stop-color="#efd4d1"/>
      <stop offset="1" stop-color="#f2eac9"/>
    </linearGradient>
    <linearGradient id="linear-gradient-22" x1="607.72" y1="399.78" x2="358.28" y2="403.51" gradientTransform="matrix(1, 0, 0, -1, 0, 600)" xlink:href="#linear-gradient"/>
    <linearGradient id="linear-gradient-23" x1="308" y1="344.93" x2="355.18" y2="344.93" xlink:href="#linear-gradient-21"/>
    <linearGradient id="linear-gradient-24" x1="307.86" y1="169.23" x2="326.35" y2="169.23" xlink:href="#linear-gradient-21"/>
    <linearGradient id="linear-gradient-25" x1="275.37" y1="173.78" x2="294.66" y2="173.78" xlink:href="#linear-gradient-21"/>
    <linearGradient id="linear-gradient-26" x1="231.28" y1="311.61" x2="262.92" y2="321.84" gradientTransform="matrix(1, 0, 0, -1, -109.43, 600.16)" gradientUnits="userSpaceOnUse">
      <stop offset="0" stop-color="#fff" stop-opacity="0"/>
      <stop offset="1" stop-color="#e7faff"/>
    </linearGradient>
    <linearGradient id="linear-gradient-27" x1="271.9" y1="387.57" x2="289.13" y2="389.65" xlink:href="#linear-gradient-21"/>
  </defs>
  <title>44. Image Post</title>
  <path d="M117.62,460c-18.75,21.89-45.37,39.59-52.16,67.6-5.32,21.92,4.49,46.69,23.37,59,16.14,10.58,36.74,11.95,55.84,9.58s37.75-8,56.88-10.45c22.74-2.84,45.79-1,68.67-2.23s46.56-6.13,64.47-20.42c5.53-4.41,10.53-9.86,12.78-16.57,2.37-7.11,1.43-14.83,1.54-22.33a79.09,79.09,0,0,1,30.26-60.47c10.51-8.13,23-13.5,33.09-22.16A66,66,0,0,0,434.09,382c-1.28-7.88-172.89-.43-189.55.18q-23.26.87-46.52,2.13c-10.49.57-32-2.13-40.41,4.88-7.57,6.3-11.48,25.11-16.15,34.13C134.75,436.31,127.14,448.86,117.62,460Z" transform="translate(0)" fill="#3fa9ff" opacity="0.18" style="isolation: isolate"/>
  <path d="M557.39,25.54V361.82A25.42,25.42,0,0,1,532,387.25H25.42A25.42,25.42,0,0,1,0,361.83H0V25.54A25.44,25.44,0,0,1,25.42.16H532A25.44,25.44,0,0,1,557.39,25.54Z" transform="translate(0)" fill="#3fa9ff"/>
  <path d="M557.39,25.54V361.82A25.42,25.42,0,0,1,532,387.25H25.42A25.42,25.42,0,0,1,0,361.83H0V25.54A25.44,25.44,0,0,1,25.42.16H532A25.44,25.44,0,0,1,557.39,25.54Z" transform="translate(0)" fill="url(#linear-gradient)"/>
  <path d="M157.57,68.16l-8.31,3.91V239.68L171,318.16l3,68,55,1V269.93l22.73-33.61,156.4-.61V227Zm73.64,171.77c-2.2,5-6.88,9.68-10.15,14.06q-6,8.08-12.19,16.11a5,5,0,0,1-1.36,1.35c-1.93,1.09-4.17-.72-5.57-2.43a104,104,0,0,1-18.31-32.74,2.58,2.58,0,0,1-.13-1.87c.41-.9,1.64-1,2.63-1q18.6.51,37.2,1.25c4.24.16,10.49-.75,7.87,5.24Z" transform="translate(0)" opacity="0.19" fill="url(#linear-gradient-2)" style="isolation: isolate"/>
  <rect x="157.56" y="63.22" width="256.76" height="167.14" fill="#fff"/>
  <rect x="167.17" y="72.04" width="238" height="149.5" fill="#3fa9ff"/>
  <path d="M405.17,153.22v68.32h-238V176.22c13.56-15.14,33.6-25.17,51.45-37.56a49.77,49.77,0,0,1,10.53-6.09c15.32-5.78,31.57,4.29,45.5,12.9A328.8,328.8,0,0,0,327.76,172,49.56,49.56,0,0,0,302.16,153l24.28-20.12c3-2.49,6.1-5,9.77-6.35,7.37-2.63,15.47.11,22.74,3q15.26,6.09,30.06,13.23C394.81,145.6,400.69,148.63,405.17,153.22Z" transform="translate(0)" fill="url(#linear-gradient-3)"/>
  <path d="M176.36,188.51c1.68,1.93,3.29,4.33,5.81,4.74a6.13,6.13,0,0,1,2.31.49c1,.62,1.12,2,1.15,3.15q.21,7.79.41,15.56c.08,2.91,0,6.12-1.88,8.3-.86,1-2,1.64-2.91,2.62a2.94,2.94,0,0,0-.62,3.57,40.51,40.51,0,0,1,14.79,2.84l-27.22.56a3.55,3.55,0,0,1-2-.36c-.93-.61-1.07-1.89-1.1-3-.11-4.45,0-8.9.24-13.34a54.73,54.73,0,0,0,.14-8.87c-.37-3.71-1.64-7.42-.92-11.08C165.7,187.78,171.57,183,176.36,188.51Z" transform="translate(0)" opacity="0.19" fill="url(#linear-gradient-4)" style="isolation: isolate"/>
  <circle cx="370.71" cy="101.1" r="16.04" fill="#fff"/>
  <path d="M174,581.9h0a3,3,0,0,0,3-3V274.39a3,3,0,0,0-3-3h0a3,3,0,0,0-3,3V578.87a3,3,0,0,0,3,3Z" transform="translate(0)" fill="#3fa9ff"/>
  <path d="M216.92,581.9h0a3,3,0,0,0,3-3V274.39a3,3,0,0,0-3-3h0a3,3,0,0,0-3,3V578.87a3,3,0,0,0,3,3Z" transform="translate(0)" fill="#3fa9ff"/>
  <rect x="174.01" y="297.35" width="42.91" height="6.91" fill="#3fa9ff"/>
  <rect x="174.01" y="341.72" width="42.91" height="6.91" fill="#3fa9ff"/>
  <rect x="174.01" y="386.08" width="42.91" height="6.91" fill="#3fa9ff"/>
  <rect x="174.01" y="430.45" width="42.91" height="6.91" fill="#3fa9ff"/>
  <rect x="174.01" y="474.81" width="42.91" height="6.91" fill="#3fa9ff"/>
  <rect x="174.01" y="519.18" width="42.91" height="6.91" fill="#3fa9ff"/>
  <path d="M174,581.9h0a3,3,0,0,0,3-3V274.39a3,3,0,0,0-3-3h0a3,3,0,0,0-3,3V578.87a3,3,0,0,0,3,3Z" transform="translate(0)" fill="url(#linear-gradient-5)"/>
  <path d="M216.92,581.9h0a3,3,0,0,0,3-3V274.39a3,3,0,0,0-3-3h0a3,3,0,0,0-3,3V578.87a3,3,0,0,0,3,3Z" transform="translate(0)" fill="url(#linear-gradient-6)"/>
  <rect x="174.01" y="297.35" width="42.91" height="6.91" fill="url(#linear-gradient-7)"/>
  <rect x="174.01" y="341.72" width="42.91" height="6.91" fill="url(#linear-gradient-8)"/>
  <rect x="174.01" y="386.08" width="42.91" height="6.91" fill="url(#linear-gradient-9)"/>
  <rect x="174.01" y="430.45" width="42.91" height="6.91" fill="url(#linear-gradient-10)"/>
  <rect x="174.01" y="474.81" width="42.91" height="6.91" fill="url(#linear-gradient-11)"/>
  <rect x="174.01" y="519.18" width="42.91" height="6.91" fill="url(#linear-gradient-12)"/>
  <path d="M559.06,25.44v5H1.66v-5A25.44,25.44,0,0,1,27.09,0H533.63a25.44,25.44,0,0,1,25.43,25.43Z" transform="translate(0)" fill="#3fa9ff"/>
  <path d="M559.06,25.44v5H1.66v-5A25.44,25.44,0,0,1,27.09,0H533.63a25.44,25.44,0,0,1,25.43,25.43Z" transform="translate(0)" fill="#3fa9ff"/>
  <path d="M559.06,25.44v5H1.66v-5A25.44,25.44,0,0,1,27.09,0H533.63a25.44,25.44,0,0,1,25.43,25.43Z" transform="translate(0)" fill="url(#linear-gradient-13)"/>
  <path d="M30.57,15.24a4,4,0,1,1-4-4A4,4,0,0,1,30.57,15.24Z" transform="translate(0)" fill="url(#linear-gradient-14)"/>
  <path d="M49.22,15.24a4,4,0,1,1-4-4A4,4,0,0,1,49.22,15.24Z" transform="translate(0)" fill="url(#linear-gradient-15)"/>
  <circle cx="63.85" cy="15.23" r="4.01" fill="url(#linear-gradient-16)"/>
  <path d="M122.07,30.47V387.16h-95A25.43,25.43,0,0,1,1.64,361.74V30.47Z" transform="translate(0)" fill="#3fa9ff"/>
  <path d="M106,87.74H18.76a2.68,2.68,0,0,1-2.67-2.67h0a2.66,2.66,0,0,1,2.65-2.67H106a2.68,2.68,0,0,1,2.67,2.67h0A2.68,2.68,0,0,1,106,87.74Z" transform="translate(0)" fill="url(#linear-gradient-17)"/>
  <path d="M106,137.06H18.76a2.68,2.68,0,0,1-2.67-2.67h0a2.68,2.68,0,0,1,2.66-2.68H106a2.68,2.68,0,0,1,2.67,2.68h0A2.69,2.69,0,0,1,106,137.06Z" transform="translate(0)" fill="url(#linear-gradient-18)"/>
  <path d="M106,186.39H18.76a2.68,2.68,0,0,1-2.67-2.67h0A2.68,2.68,0,0,1,18.76,181H106a2.69,2.69,0,0,1,2.67,2.67h0A2.68,2.68,0,0,1,106,186.39Z" transform="translate(0)" fill="url(#linear-gradient-19)"/>
  <path d="M106,235.71H18.76a2.66,2.66,0,0,1-2.67-2.65v0h0a2.66,2.66,0,0,1,2.65-2.67H106A2.68,2.68,0,0,1,108.7,233h0A2.68,2.68,0,0,1,106,235.71Z" transform="translate(0)" fill="url(#linear-gradient-20)"/>
  <path d="M136.71,269.66s-4.39,1.17-6.92-1.33-1.22-10.53-1.22-10.53L174,202.7l.9,15.49Z" transform="translate(0)" fill="url(#linear-gradient-21)"/>
  <rect x="327.26" y="271.35" width="90.28" height="33.4" fill="#3fa9ff"/>
  <path d="M559.06,30.47V361.72a25.42,25.42,0,0,1-25.4,25.44H449.28V30.47Z" transform="translate(0)" fill="#3fa9ff"/>
  <rect x="449.28" y="124.55" width="109.78" height="148.24" fill="url(#linear-gradient-22)"/>
  <path d="M198.57,271.36s6.73,9.32,11.05,9.54S240,234.76,240,234.76l5.71-4.39s-12.39-2-14.06.27-20.91,34-20.91,34L208,263.25Z" transform="translate(0)" fill="url(#linear-gradient-23)"/>
  <path d="M148.62,317.42s-2,12.75,0,18S168.22,372,168.22,372l-4.54,48H178l6.91-48L177,335.42l9.31-20.5Z" transform="translate(0)" fill="#25233a"/>
  <path d="M161.93,332.59l30.77,53.5,3.77,40.54,13.83-3.36L208,373.66l-19.55-59.73-30,2.84S159.19,328.21,161.93,332.59Z" transform="translate(0)" fill="#3f3d56"/>
  <path d="M198.43,426.16s1.62,10.46,2.36,11.22,6.54-.73,6.54-.73l9.59-6.19s0-3-7.22-1.24c0,0-3.22.19-3.46-5Z" transform="translate(0)" fill="url(#linear-gradient-24)"/>
  <path d="M178,419.93l-1,4.79,8.19,5.73s-.33,1.51-3.23,2.18-15.82-.41-16-1.71,2.08-5.42,2.26-5.87,1.08-5.12,1.08-5.12Z" transform="translate(0)" fill="url(#linear-gradient-25)"/>
  <path d="M159.39,228.76s-13.17,3.2-14.95,7.48-16.23,17.65-15.87,22.92,10.27,12.06,10.27,12.06l7.58-7.39.85,49.94a5.81,5.81,0,0,0,4,5.42c5.7,1.85,11.84,1.48,19.7-1.12,11.19-3.7,17.72-3.33,17.72-3.33l-1.93-53,9.1,11.86L208,263.19s-17.83-29-20.87-30.8-16.65-3.83-16.65-3.83S164.47,232.21,159.39,228.76Z" transform="translate(0)" fill="#3fa9ff"/>
  <path d="M159.39,228.76s-13.17,3.2-14.95,7.48-16.23,17.65-15.87,22.92,10.27,12.06,10.27,12.06l7.58-7.39.85,49.94a5.81,5.81,0,0,0,4,5.42c5.7,1.85,11.84,1.48,19.7-1.12,11.19-3.7,17.72-3.33,17.72-3.33l-1.93-53,9.1,11.86L208,263.19s-17.83-29-20.87-30.8-16.65-3.83-16.65-3.83S164.47,232.21,159.39,228.76Z" transform="translate(0)" fill="url(#linear-gradient-26)"/>
  <path d="M176.5,199.35a83.14,83.14,0,0,1,1.26,11.35,13.31,13.31,0,0,1-.24,4.27,4.74,4.74,0,0,1-2.61,3.22,12.63,12.63,0,0,0-2.45.83,3,3,0,0,0-1.16,1.73,11.68,11.68,0,0,0,0,4,5.43,5.43,0,0,1-.83,3.82A5,5,0,0,1,168,230a13.29,13.29,0,0,1-6.91.28,2.33,2.33,0,0,1-1-.42,2.56,2.56,0,0,1-.65-1.13,63.72,63.72,0,0,1-2-7.8,58.71,58.71,0,0,1-1.71-11.26,18.64,18.64,0,0,1,2.82-10.86c2.14-3.15,5.82-5.39,9.62-5.14a18.43,18.43,0,0,1,6.06,1.84C175.8,196.27,176.16,197.63,176.5,199.35Z" transform="translate(0)" fill="url(#linear-gradient-27)"/>
  <path d="M176.5,194.16c.1-1.89-1.4-3.47-2.91-4.6a3.08,3.08,0,0,1-.75-.69,6.13,6.13,0,0,1-.48-1.32c-.61-1.72-2.65-2.49-4.48-2.49s-3.62.55-5.44.5c-1.44,0-3-.44-4.28.17a5.35,5.35,0,0,0-1.89,1.71,8.5,8.5,0,0,0-1.86,3.66c-.06.61-.14,1.22-.26,1.83a5.45,5.45,0,0,1-1,1.85c-1.9,2.61-4.67,4.8-5.35,7.95-.43,2-.86,4.3.1,6.1,9.31,17.33,11.67,18.33,12.67,18.16s6.22-.38,6.77-7a3.72,3.72,0,0,0,.13-1.37,2.66,2.66,0,0,0-.65-1,8.33,8.33,0,0,1-1.62-2.24,3,3,0,0,1,0-2.67,2.37,2.37,0,0,1,3.3-.64,2.11,2.11,0,0,1,.45.39c.62-1.77-1.22-3.77-.46-5.49.45-1,1.72-1.55,2.16-2.6.58-1.4-.46-3.34.65-4.37a7.63,7.63,0,0,1,1.18-.67c.63-.39.76-.91,1.07-1.52s.39-.55,1.06-.9A3.44,3.44,0,0,0,176.5,194.16Z" transform="translate(0)" fill="#3f3d56"/>
  <path d="M231.2,239.9c-2.2,5-6.88,9.68-10.15,14.06q-6,8.09-12.19,16.11a5,5,0,0,1-1.36,1.35c-1.93,1.09-4.17-.72-5.57-2.43a104,104,0,0,1-18.31-32.74,2.58,2.58,0,0,1-.13-1.87c.41-.9,1.64-1,2.63-1q18.6.51,37.2,1.25C227.57,234.82,233.82,233.91,231.2,239.9Z" transform="translate(0)" fill="none"/>
  <path d="M201.57,431.63c2.07-.5,3.32-2.57,5.06-3.81a3.5,3.5,0,0,1,1.37-.63,6.91,6.91,0,0,1,1.7.08c1.45.13,2.9-.2,4.36-.2a9.71,9.71,0,0,1,2.15.24,4,4,0,0,1,2,1,1.88,1.88,0,0,1,.45,2.08,2.82,2.82,0,0,1-1,1q-5,3.45-10.1,6.88a12,12,0,0,1-3.3,1.75,5.86,5.86,0,0,1-3.42-.07,2.41,2.41,0,0,1-1.16-.71,2.78,2.78,0,0,1-.47-1.07c-.39-1.4-1.14-3.42-.86-4.89S200.39,431.92,201.57,431.63Z" transform="translate(0)" fill="#3f3d56"/>
  <path d="M166.37,426.8l-1.19,4a2.15,2.15,0,0,0,0,1.79,2.07,2.07,0,0,0,1.29.68,21.74,21.74,0,0,0,3.58.68c1.85.13,3.69-.22,5.53-.17,2.09.06,4.21.64,6.22.1a11.75,11.75,0,0,0,3.39-1.8l1.93-1.33a.74.74,0,0,0,.35-.39c.07-.25-.13-.49-.33-.66-1.46-1.26-3.48-1.59-5.28-2.3a12.59,12.59,0,0,1-4.37-2.91,1.89,1.89,0,0,0-.92-.63c-.6-.12-1.12.4-1.64.73a5.66,5.66,0,0,1-3.45.61c-.89-.13-.92-.59-1.47-1.17C168.29,422.26,166.77,425.45,166.37,426.8Z" transform="translate(0)" fill="#3f3d56"/>
</svg>
